<?xml version="1.0" encoding="utf-8"?>
<!-- Generator: Adobe Illustrator 25.4.1, SVG Export Plug-In . SVG Version: 6.00 Build 0)  -->
<svg version="1.1" id="_x31_" xmlns="http://www.w3.org/2000/svg" xmlns:xlink="http://www.w3.org/1999/xlink" x="0px" y="0px"
	 viewBox="0 0 800 300" style="enable-background:new 0 0 800 300;" xml:space="preserve">
<style type="text/css">
	.st0{filter:url(#Adobe_OpacityMaskFilter);}
	.st1{filter:url(#Adobe_OpacityMaskFilter_00000022559289169838444210000002418919710526172802_);}
	.st2{mask:url(#SVGID_1_);fill:url(#SVGID_00000179617766643371297010000002663894795977442229_);}
	.st3{opacity:0.3;fill:url(#SVGID_00000029729039952736089990000000577262342411283375_);}
	.st4{filter:url(#Adobe_OpacityMaskFilter_00000145046142252594039830000017918099324026184889_);}
	.st5{filter:url(#Adobe_OpacityMaskFilter_00000137091351136215281130000009573886434573618362_);}
	
		.st6{mask:url(#SVGID_00000091736292814398490640000014725767068092035470_);fill:url(#SVGID_00000028306240292187474770000000466154169995889289_);}
	.st7{opacity:0.3;fill:url(#SVGID_00000163751569085647116280000003505130716556030346_);}
	.st8{filter:url(#Adobe_OpacityMaskFilter_00000111178333027436996070000015512058417896885396_);}
	.st9{filter:url(#Adobe_OpacityMaskFilter_00000062178105616300275360000001560074934865958836_);}
	
		.st10{mask:url(#SVGID_00000127733664378807080330000001669272153876760711_);fill:url(#SVGID_00000011017968646007800080000017890088321326320055_);}
	.st11{opacity:0.3;fill:url(#SVGID_00000124158878713273729040000016175158498876587453_);}
	.st12{filter:url(#Adobe_OpacityMaskFilter_00000044173329306113050770000005419123102347706783_);}
	.st13{filter:url(#Adobe_OpacityMaskFilter_00000095317484083334109860000017943371557977842069_);}
	
		.st14{mask:url(#SVGID_00000044173653494097486110000008476554090577850532_);fill:url(#SVGID_00000112633422924819873460000005631181623690871698_);}
	.st15{opacity:0.3;fill:url(#SVGID_00000149346803815141127960000015340470632894511017_);}
	.st16{filter:url(#Adobe_OpacityMaskFilter_00000011752497261820866130000014820060016713738409_);}
	.st17{filter:url(#Adobe_OpacityMaskFilter_00000109745515268400088530000014388504082515851912_);}
	
		.st18{mask:url(#SVGID_00000183964807383724820680000005301104649454770312_);fill:url(#SVGID_00000003083356225192867610000009177198993426255240_);}
	.st19{opacity:0.3;fill:url(#SVGID_00000108289319866772668090000017439388827007958155_);}
	.st20{fill:#FFEDC5;}
	.st21{fill:#FFE4C0;}
	.st22{fill:#FFDBB3;}
	.st23{fill:#F4C49D;}
	.st24{fill:#FFF8D7;}
	.st25{filter:url(#Adobe_OpacityMaskFilter_00000014630352666056851680000002291583586933456813_);}
	.st26{filter:url(#Adobe_OpacityMaskFilter_00000135666797651382118220000008035893548066899591_);}
	
		.st27{mask:url(#SVGID_00000088823716097047619380000000760982325686151817_);fill:url(#SVGID_00000000208709002848082670000002788673939034791847_);}
	.st28{opacity:0.3;fill:url(#SVGID_00000044869820209519169160000017588777198996724114_);}
	.st29{filter:url(#Adobe_OpacityMaskFilter_00000122715320755977713260000016266269105341131929_);}
	.st30{filter:url(#Adobe_OpacityMaskFilter_00000166634682280969493940000002211474339978244525_);}
	
		.st31{mask:url(#SVGID_00000024695211666840948250000005146301954459542707_);fill:url(#SVGID_00000069371090377323519270000006794328807322392490_);}
	.st32{opacity:0.3;fill:url(#SVGID_00000108310553509806471240000004502991529334057091_);}
	.st33{filter:url(#Adobe_OpacityMaskFilter_00000116199150455594217530000007280433255688080814_);}
	.st34{filter:url(#Adobe_OpacityMaskFilter_00000128473461572318283890000012522307380153965503_);}
	
		.st35{mask:url(#SVGID_00000160903752563729754010000009891276963978223004_);fill:url(#SVGID_00000140695976884714813670000013207647641558290825_);}
	.st36{opacity:0.3;fill:url(#SVGID_00000004506051110023876390000008871588889421100454_);}
	.st37{filter:url(#Adobe_OpacityMaskFilter_00000072248333924105814620000006775309614262579597_);}
	.st38{filter:url(#Adobe_OpacityMaskFilter_00000007417105613752130990000018027229965533478807_);}
	
		.st39{mask:url(#SVGID_00000129194340453341346020000008973885274348868019_);fill:url(#SVGID_00000129897142256786876320000001364603103317028739_);}
	.st40{opacity:0.3;fill:url(#SVGID_00000070084540262948216390000012266942186949596074_);}
	.st41{fill:#F4677F;}
	.st42{fill:#D14664;}
	.st43{fill:#FF92AA;}
	.st44{filter:url(#Adobe_OpacityMaskFilter_00000124849317187856301950000010839954076486363781_);}
	.st45{filter:url(#Adobe_OpacityMaskFilter_00000112634981166132454860000014549006829649039796_);}
	
		.st46{mask:url(#SVGID_00000166673098143869720300000008025078481301959559_);fill:url(#SVGID_00000163780413640560950440000018315783926644961718_);}
	.st47{opacity:0.3;fill:url(#SVGID_00000004522612068110617970000011632063015006942898_);}
	.st48{opacity:0.7;fill:#A54D38;}
	.st49{opacity:0.7;}
	.st50{fill:#A54D38;}
</style>
<defs>
	<filter id="Adobe_OpacityMaskFilter" filterUnits="userSpaceOnUse" x="21.6" y="70.63" width="140.96" height="162.86">
		<feFlood  style="flood-color:white;flood-opacity:1" result="back"/>
		<feBlend  in="SourceGraphic" in2="back" mode="normal"/>
	</filter>
</defs>
<mask maskUnits="userSpaceOnUse" x="21.6" y="70.63" width="140.96" height="162.86" id="SVGID_1_">
	<g class="st0">
		<defs>
			
				<filter id="Adobe_OpacityMaskFilter_00000085226172968680888080000014139651521371566745_" filterUnits="userSpaceOnUse" x="21.6" y="70.63" width="140.96" height="162.86">
				<feFlood  style="flood-color:white;flood-opacity:1" result="back"/>
				<feBlend  in="SourceGraphic" in2="back" mode="normal"/>
			</filter>
		</defs>
		<mask maskUnits="userSpaceOnUse" x="21.6" y="70.63" width="140.96" height="162.86" id="SVGID_1_">
			<g style="filter:url(#Adobe_OpacityMaskFilter_00000085226172968680888080000014139651521371566745_);">
			</g>
		</mask>
		
			<linearGradient id="SVGID_00000005985541394807189250000000145684195950539676_" gradientUnits="userSpaceOnUse" x1="92.0219" y1="197.8203" x2="91.319" y2="264.6204">
			<stop  offset="0" style="stop-color:#FFFFFF"/>
			<stop  offset="1" style="stop-color:#000000"/>
		</linearGradient>
		<path style="mask:url(#SVGID_1_);fill:url(#SVGID_00000005985541394807189250000000145684195950539676_);" d="M150.63,75.71
			L28.84,70.63c10.75,54.51,10.4,90.65-7.24,144.99l0.56,0.08c0.01-0.02,0.01-0.03,0.01-0.05c51.3,2.52,86.39,5.93,133.79,17.84
			C166.39,175.06,164.35,136.49,150.63,75.71z"/>
	</g>
</mask>
<linearGradient id="SVGID_00000119118868085386370100000012558702601219020732_" gradientUnits="userSpaceOnUse" x1="92.0219" y1="197.8203" x2="91.319" y2="264.6204">
	<stop  offset="0" style="stop-color:#671D00"/>
	<stop  offset="1" style="stop-color:#FFE0B9"/>
</linearGradient>
<path style="opacity:0.3;fill:url(#SVGID_00000119118868085386370100000012558702601219020732_);" d="M150.63,75.71L28.84,70.63
	c10.75,54.51,10.4,90.65-7.24,144.99l0.56,0.08c0.01-0.02,0.01-0.03,0.01-0.05c51.3,2.52,86.39,5.93,133.79,17.84
	C166.39,175.06,164.35,136.49,150.63,75.71z"/>
<defs>
	
		<filter id="Adobe_OpacityMaskFilter_00000025433605930527371220000010060717466764729532_" filterUnits="userSpaceOnUse" x="178.53" y="63.81" width="140.03" height="165.77">
		<feFlood  style="flood-color:white;flood-opacity:1" result="back"/>
		<feBlend  in="SourceGraphic" in2="back" mode="normal"/>
	</filter>
</defs>
<mask maskUnits="userSpaceOnUse" x="178.53" y="63.81" width="140.03" height="165.77" id="SVGID_00000007410935506595808580000017096580456496006049_">
	<g style="filter:url(#Adobe_OpacityMaskFilter_00000025433605930527371220000010060717466764729532_);">
		<defs>
			
				<filter id="Adobe_OpacityMaskFilter_00000175317056883965396140000004026110478532119959_" filterUnits="userSpaceOnUse" x="178.53" y="63.81" width="140.03" height="165.77">
				<feFlood  style="flood-color:white;flood-opacity:1" result="back"/>
				<feBlend  in="SourceGraphic" in2="back" mode="normal"/>
			</filter>
		</defs>
		
			<mask maskUnits="userSpaceOnUse" x="178.53" y="63.81" width="140.03" height="165.77" id="SVGID_00000007410935506595808580000017096580456496006049_">
			<g style="filter:url(#Adobe_OpacityMaskFilter_00000175317056883965396140000004026110478532119959_);">
			</g>
		</mask>
		
			<linearGradient id="SVGID_00000020390142252687945340000007587926524159803051_" gradientUnits="userSpaceOnUse" x1="248.8505" y1="199.5085" x2="248.1481" y2="266.2542">
			<stop  offset="0" style="stop-color:#FFFFFF"/>
			<stop  offset="1" style="stop-color:#000000"/>
		</linearGradient>
		
			<path style="mask:url(#SVGID_00000007410935506595808580000017096580456496006049_);fill:url(#SVGID_00000020390142252687945340000007587926524159803051_);" d="
			M318.56,227.29c-8.03-59.91-11.38-98.15-10.01-163.49c-86.35,10.53-45.99,4.15-108.03,16.31l-18.6,27.64l0.06-0.03l-0.71,0.64
			l-2.03,90.05l0,0l-0.7,31.16C260.28,221.36,303.52,227.52,318.56,227.29z"/>
	</g>
</mask>
<linearGradient id="SVGID_00000093858980770367335740000008294438045736541838_" gradientUnits="userSpaceOnUse" x1="248.8505" y1="199.5085" x2="248.1481" y2="266.2542">
	<stop  offset="0" style="stop-color:#671D00"/>
	<stop  offset="1" style="stop-color:#FFE0B9"/>
</linearGradient>
<path style="opacity:0.3;fill:url(#SVGID_00000093858980770367335740000008294438045736541838_);" d="M318.56,227.29
	c-8.03-59.91-11.38-98.15-10.01-163.49c-86.35,10.53-45.99,4.15-108.03,16.31l-18.6,27.64l0.06-0.03l-0.71,0.64l-2.03,90.05l0,0
	l-0.7,31.16C260.28,221.36,303.52,227.52,318.56,227.29z"/>
<defs>
	
		<filter id="Adobe_OpacityMaskFilter_00000086664089928228482750000000212897420579306392_" filterUnits="userSpaceOnUse" x="626.57" y="63.11" width="141.4" height="169.29">
		<feFlood  style="flood-color:white;flood-opacity:1" result="back"/>
		<feBlend  in="SourceGraphic" in2="back" mode="normal"/>
	</filter>
</defs>
<mask maskUnits="userSpaceOnUse" x="626.57" y="63.11" width="141.4" height="169.29" id="SVGID_00000119799350052660137380000013094703039904880790_">
	<g style="filter:url(#Adobe_OpacityMaskFilter_00000086664089928228482750000000212897420579306392_);">
		<defs>
			
				<filter id="Adobe_OpacityMaskFilter_00000164500079751323225700000007861411568015691662_" filterUnits="userSpaceOnUse" x="626.57" y="63.11" width="141.4" height="169.29">
				<feFlood  style="flood-color:white;flood-opacity:1" result="back"/>
				<feBlend  in="SourceGraphic" in2="back" mode="normal"/>
			</filter>
		</defs>
		
			<mask maskUnits="userSpaceOnUse" x="626.57" y="63.11" width="141.4" height="169.29" id="SVGID_00000119799350052660137380000013094703039904880790_">
			<g style="filter:url(#Adobe_OpacityMaskFilter_00000164500079751323225700000007861411568015691662_);">
			</g>
		</mask>
		
			<linearGradient id="SVGID_00000034789236183014621010000001603393496968594100_" gradientUnits="userSpaceOnUse" x1="696.4384" y1="199.1746" x2="695.7361" y2="265.9206">
			<stop  offset="0" style="stop-color:#FFFFFF"/>
			<stop  offset="1" style="stop-color:#000000"/>
		</linearGradient>
		
			<path style="mask:url(#SVGID_00000119799350052660137380000013094703039904880790_);fill:url(#SVGID_00000034789236183014621010000001603393496968594100_);" d="
			M766.61,63.11c-81.78,8.39-124.99,2.1-140.04,2.33c7.79,61.18,10.99,100.23,9.35,166.95l10.82-1.35c0,0,0,0,0,0l56.74-7.08l0,0
			l60.8-5.47C769.17,171.25,768.35,211.15,766.61,63.11z"/>
	</g>
</mask>
<linearGradient id="SVGID_00000152253362525841662250000007033396487289233599_" gradientUnits="userSpaceOnUse" x1="696.4384" y1="199.1746" x2="695.7361" y2="265.9206">
	<stop  offset="0" style="stop-color:#671D00"/>
	<stop  offset="1" style="stop-color:#FFE0B9"/>
</linearGradient>
<path style="opacity:0.3;fill:url(#SVGID_00000152253362525841662250000007033396487289233599_);" d="M766.61,63.11
	c-81.78,8.39-124.99,2.1-140.04,2.33c7.79,61.18,10.99,100.23,9.35,166.95l10.82-1.35c0,0,0,0,0,0l56.74-7.08l0,0l60.8-5.47
	C769.17,171.25,768.35,211.15,766.61,63.11z"/>
<defs>
	
		<filter id="Adobe_OpacityMaskFilter_00000114785450195385512700000016223985480926154119_" filterUnits="userSpaceOnUse" x="328.72" y="65.97" width="126.4" height="161.61">
		<feFlood  style="flood-color:white;flood-opacity:1" result="back"/>
		<feBlend  in="SourceGraphic" in2="back" mode="normal"/>
	</filter>
</defs>
<mask maskUnits="userSpaceOnUse" x="328.72" y="65.97" width="126.4" height="161.61" id="SVGID_00000011021647636365739250000009708991225574629263_">
	<g style="filter:url(#Adobe_OpacityMaskFilter_00000114785450195385512700000016223985480926154119_);">
		<defs>
			
				<filter id="Adobe_OpacityMaskFilter_00000162321242532919047990000010393597182462585778_" filterUnits="userSpaceOnUse" x="328.72" y="65.97" width="126.4" height="161.61">
				<feFlood  style="flood-color:white;flood-opacity:1" result="back"/>
				<feBlend  in="SourceGraphic" in2="back" mode="normal"/>
			</filter>
		</defs>
		
			<mask maskUnits="userSpaceOnUse" x="328.72" y="65.97" width="126.4" height="161.61" id="SVGID_00000011021647636365739250000009708991225574629263_">
			<g style="filter:url(#Adobe_OpacityMaskFilter_00000162321242532919047990000010393597182462585778_);">
			</g>
		</mask>
		
			<linearGradient id="SVGID_00000178904952617901143670000005364229184832491692_" gradientUnits="userSpaceOnUse" x1="391.1875" y1="201.0846" x2="390.4851" y2="267.8323">
			<stop  offset="0" style="stop-color:#FFFFFF"/>
			<stop  offset="1" style="stop-color:#000000"/>
		</linearGradient>
		
			<path style="mask:url(#SVGID_00000011021647636365739250000009708991225574629263_);fill:url(#SVGID_00000178904952617901143670000005364229184832491692_);" d="
			M451.94,71.12C451.94,71.13,451.94,71.13,451.94,71.12l-0.13-5.16c-45.58,6.6-75.82,4.95-123.09,0.4
			c3.34,43.92,4.99,80.66,4.62,126.92l-0.6,34.29l2.91-0.16c0,0,0,0,0,0l82.97-4.57h-0.02l35.33-6.38
			C455.7,190.53,455.82,221.12,451.94,71.12z M333.18,111.91c0.3,4.93,0.54,9.83,0.72,14.75
			C333.68,121.69,333.44,116.78,333.18,111.91z"/>
	</g>
</mask>
<linearGradient id="SVGID_00000150804961277511419560000004979742119035606695_" gradientUnits="userSpaceOnUse" x1="391.1875" y1="201.0846" x2="390.4851" y2="267.8323">
	<stop  offset="0" style="stop-color:#671D00"/>
	<stop  offset="1" style="stop-color:#FFE0B9"/>
</linearGradient>
<path style="opacity:0.3;fill:url(#SVGID_00000150804961277511419560000004979742119035606695_);" d="M451.94,71.12
	C451.94,71.13,451.94,71.13,451.94,71.12l-0.13-5.16c-45.58,6.6-75.82,4.95-123.09,0.4c3.34,43.92,4.99,80.66,4.62,126.92
	l-0.6,34.29l2.91-0.16c0,0,0,0,0,0l82.97-4.57h-0.02l35.33-6.38C455.7,190.53,455.82,221.12,451.94,71.12z M333.18,111.91
	c0.3,4.93,0.54,9.83,0.72,14.75C333.68,121.69,333.44,116.78,333.18,111.91z"/>
<defs>
	
		<filter id="Adobe_OpacityMaskFilter_00000135661502102664264590000008070552062681612160_" filterUnits="userSpaceOnUse" x="475.3" y="61.01" width="143.61" height="156.96">
		<feFlood  style="flood-color:white;flood-opacity:1" result="back"/>
		<feBlend  in="SourceGraphic" in2="back" mode="normal"/>
	</filter>
</defs>
<mask maskUnits="userSpaceOnUse" x="475.3" y="61.01" width="143.61" height="156.96" id="SVGID_00000176033793372566527900000017628216706259574684_">
	<g style="filter:url(#Adobe_OpacityMaskFilter_00000135661502102664264590000008070552062681612160_);">
		<defs>
			
				<filter id="Adobe_OpacityMaskFilter_00000076585009064052470360000011486884056955082374_" filterUnits="userSpaceOnUse" x="475.3" y="61.01" width="143.61" height="156.96">
				<feFlood  style="flood-color:white;flood-opacity:1" result="back"/>
				<feBlend  in="SourceGraphic" in2="back" mode="normal"/>
			</filter>
		</defs>
		
			<mask maskUnits="userSpaceOnUse" x="475.3" y="61.01" width="143.61" height="156.96" id="SVGID_00000176033793372566527900000017628216706259574684_">
			<g style="filter:url(#Adobe_OpacityMaskFilter_00000076585009064052470360000011486884056955082374_);">
			</g>
		</mask>
		
			<linearGradient id="SVGID_00000154410595738201905930000004918998690921274809_" gradientUnits="userSpaceOnUse" x1="546.5325" y1="195.4157" x2="545.8301" y2="262.1624">
			<stop  offset="0" style="stop-color:#FFFFFF"/>
			<stop  offset="0.2087" style="stop-color:#C0C0C0"/>
			<stop  offset="0.4971" style="stop-color:#6F6F6F"/>
			<stop  offset="0.7344" style="stop-color:#333333"/>
			<stop  offset="0.9081" style="stop-color:#0E0E0E"/>
			<stop  offset="1" style="stop-color:#000000"/>
		</linearGradient>
		
			<path style="mask:url(#SVGID_00000176033793372566527900000017628216706259574684_);fill:url(#SVGID_00000154410595738201905930000004918998690921274809_);" d="
			M618.92,217.97c-3.17-23.12-17.88-133.14-17.58-156.54c-63.58,16.35-95.63-6.71-126.04,1.34c0.55,16.3,3.76,138.24,7.43,154.26
			C513.77,216.36,588,214.51,618.92,217.97z"/>
	</g>
</mask>
<linearGradient id="SVGID_00000123428481740939932360000005574943370367603099_" gradientUnits="userSpaceOnUse" x1="546.5325" y1="195.4157" x2="545.8301" y2="262.1624">
	<stop  offset="0" style="stop-color:#671D00"/>
	<stop  offset="0.0138" style="stop-color:#6A2003"/>
	<stop  offset="0.3737" style="stop-color:#A97250"/>
	<stop  offset="0.6691" style="stop-color:#D7AD89"/>
	<stop  offset="0.8855" style="stop-color:#F4D2AC"/>
	<stop  offset="1" style="stop-color:#FFE0B9"/>
</linearGradient>
<path style="opacity:0.3;fill:url(#SVGID_00000123428481740939932360000005574943370367603099_);" d="M618.92,217.97
	c-3.17-23.12-17.88-133.14-17.58-156.54c-63.58,16.35-95.63-6.71-126.04,1.34c0.55,16.3,3.76,138.24,7.43,154.26
	C513.77,216.36,588,214.51,618.92,217.97z"/>
<g>
	<path class="st20" d="M147.7,69.98L26.15,65.09c8.29,52.94,6.12,87.68-13.93,139.87c54.11-1.15,89.28,1.9,133.54,17.24
		C158.81,166.1,158.69,129,147.7,69.98z"/>
	<path class="st21" d="M98.44,145.72c-24.71,12.63-50.68,15.84-71.74,10.71c-2.98,15.1-7.68,30.8-14.49,48.52
		c51.5,2.43,86.51,5.71,133.54,17.24c11.43-49.11,12.76-83.66,5.53-131.11C142.72,112.32,124.01,132.65,98.44,145.72z"/>
	<path class="st21" d="M12.77,205.03C31.5,155.2,36.99,120.06,28.94,68.6l119.02,2.85c-0.09-0.5-0.17-0.97-0.26-1.47L26.15,65.09
		c8.29,52.94,6.12,87.68-13.93,139.87L12.77,205.03z"/>
</g>
<g>
	<path class="st20" d="M305.99,57.88l-69.81,8.33l-30.53,11.44l-27.92,23.88l-5.36,118.76c54.6-7.44,85.38-8.75,140.08-2.24
		C303.47,160.59,302.6,120.43,305.99,57.88z"/>
	<path class="st21" d="M305.99,57.88l-10.84,1.29c-1.57,44.03-36.04,92.15-89.09,118.33c-10.74,5.3-21.59,9.36-32.31,12.26
		l-1.38,30.53c53.54-5.26,85.38-5.04,140.08-2.24C302.94,158.97,301.9,120.43,305.99,57.88z"/>
	<path class="st22" d="M202.65,81.31l32.52-12.52l67.81-7.26c-1.54,61.88-0.07,97.21,6.32,156.56l3.15-0.05
		c-6.73-58.69-9.26-96.16-6.46-160.17l-69.81,8.33l-30.53,11.44L202.65,81.31z"/>
	<polygon class="st20" points="237.96,66.14 197.6,73.86 178.4,100.94 	"/>
	<polygon class="st23" points="238.28,65.96 198.1,74.78 178.06,101.6 	"/>
	<polygon class="st22" points="177.73,101.53 214.46,97.82 237.95,66.16 	"/>
	<polygon class="st20" points="253.32,214.33 306.24,184.1 308.92,215.8 	"/>
	<polygon class="st20" points="255.13,211.29 178.19,186.86 176.38,218.77 	"/>
</g>
<g>
	<path class="st21" d="M630.44,219.55l69.81-8.33l30.53-11.44l32.6-25.35l0.67-117.28c-54.6,7.44-85.38,8.74-140.08,2.24
		C632.95,116.84,633.83,157,630.44,219.55z"/>
	<path class="st20" d="M630.44,219.55l10.84-1.29c1.57-44.03,36.05-92.15,89.09-118.33c10.74-5.3,21.58-9.36,32.31-12.26l1.38-30.53
		c-53.54,5.26-85.38,5.04-140.08,2.24C633.49,118.47,634.53,157,630.44,219.55z"/>
	<path class="st22" d="M733.78,196.12l-32.52,12.52l-67.81,7.26c1.54-61.88,0.07-97.21-6.32-156.56l-3.15,0.05
		c6.73,58.7,9.26,96.16,6.46,160.17l69.81-8.33l30.53-11.44L733.78,196.12z"/>
	<polygon class="st20" points="698.46,211.29 743.52,202.1 762.71,175.01 	"/>
	<polygon class="st20" points="698.14,211.47 759.03,206.22 763.05,174.35 	"/>
	<path class="st22" d="M694.65,211.1c0,0,68.73-36.46,68.4-36.75c-0.33-0.29-62.8,36.86-62.8,36.86L694.65,211.1z"/>
</g>
<g>
	<path class="st20" d="M413.22,213.76l37.03-29.25L449.2,60.16c-42.39,6.63-75.46,5.78-123.1,0.39c6.4,53.34,4.59,96.2,1.17,157.85
		l85.96-4.64H413.22z"/>
	<path class="st21" d="M449.25,65.21c-11.76,20.82-30.02,41.57-53.31,58.62c-22.64,16.57-44.08,27.38-66.4,31.76l-2.26,62.8
		l85.96-4.64h-0.02l37.03-29.25L449.25,65.21z"/>
	<polygon class="st24" points="413.22,213.76 448.66,207.52 450.7,184.37 	"/>
	<path class="st21" d="M327.6,62.31c46.6,5.37,73.74,5.44,121.62,0.43l-0.02-2.58c-45.69,6.46-75.9,4.85-123.1,0.39
		c3.17,53.08,3.96,95.45,1.17,157.85l2.91-0.15C331.68,158.08,330.63,109.51,327.6,62.31z"/>
</g>
<defs>
	
		<filter id="Adobe_OpacityMaskFilter_00000127020972470057008260000006067774304472446853_" filterUnits="userSpaceOnUse" x="387.58" y="65.14" width="15.95" height="23.69">
		<feFlood  style="flood-color:white;flood-opacity:1" result="back"/>
		<feBlend  in="SourceGraphic" in2="back" mode="normal"/>
	</filter>
</defs>
<mask maskUnits="userSpaceOnUse" x="387.58" y="65.14" width="15.95" height="23.69" id="SVGID_00000173866704115095766440000008389704557204354981_">
	<g style="filter:url(#Adobe_OpacityMaskFilter_00000127020972470057008260000006067774304472446853_);">
		<defs>
			
				<filter id="Adobe_OpacityMaskFilter_00000103226291535160803900000011803323276149149335_" filterUnits="userSpaceOnUse" x="387.58" y="65.14" width="15.95" height="23.69">
				<feFlood  style="flood-color:white;flood-opacity:1" result="back"/>
				<feBlend  in="SourceGraphic" in2="back" mode="normal"/>
			</filter>
		</defs>
		
			<mask maskUnits="userSpaceOnUse" x="387.58" y="65.14" width="15.95" height="23.69" id="SVGID_00000173866704115095766440000008389704557204354981_">
			<g style="filter:url(#Adobe_OpacityMaskFilter_00000103226291535160803900000011803323276149149335_);">
			</g>
		</mask>
		
			<linearGradient id="SVGID_00000150815911062878658950000007911136566136371382_" gradientUnits="userSpaceOnUse" x1="395.1298" y1="53.3821" x2="396.7885" y2="134.1027">
			<stop  offset="0" style="stop-color:#FFFFFF"/>
			<stop  offset="1" style="stop-color:#000000"/>
		</linearGradient>
		
			<path style="mask:url(#SVGID_00000173866704115095766440000008389704557204354981_);fill:url(#SVGID_00000150815911062878658950000007911136566136371382_);" d="
			M403.53,73.99c0-4.89-3.57-8.85-7.98-8.85c-4.4,0-7.98,3.96-7.98,8.85c0,3.04,1.38,5.71,3.48,7.31c-0.17,0.57-0.29,1.18-0.29,1.82
			c0,3.16,2.31,5.72,5.16,5.72c2.85,0,5.16-2.56,5.16-5.72c0-0.82-0.16-1.6-0.45-2.31C402.4,79.17,403.53,76.72,403.53,73.99z"/>
	</g>
</mask>
<linearGradient id="SVGID_00000054948483281777806080000000846632705192859312_" gradientUnits="userSpaceOnUse" x1="395.1298" y1="53.3821" x2="396.7885" y2="134.1027">
	<stop  offset="0" style="stop-color:#671D00"/>
	<stop  offset="1" style="stop-color:#FFE0B9"/>
</linearGradient>
<path style="opacity:0.3;fill:url(#SVGID_00000054948483281777806080000000846632705192859312_);" d="M403.53,73.99
	c0-4.89-3.57-8.85-7.98-8.85c-4.4,0-7.98,3.96-7.98,8.85c0,3.04,1.38,5.71,3.48,7.31c-0.17,0.57-0.29,1.18-0.29,1.82
	c0,3.16,2.31,5.72,5.16,5.72c2.85,0,5.16-2.56,5.16-5.72c0-0.82-0.16-1.6-0.45-2.31C402.4,79.17,403.53,76.72,403.53,73.99z"/>
<defs>
	
		<filter id="Adobe_OpacityMaskFilter_00000124144561519689732400000008125606672656453033_" filterUnits="userSpaceOnUse" x="71.84" y="65.14" width="13.51" height="22.94">
		<feFlood  style="flood-color:white;flood-opacity:1" result="back"/>
		<feBlend  in="SourceGraphic" in2="back" mode="normal"/>
	</filter>
</defs>
<mask maskUnits="userSpaceOnUse" x="71.84" y="65.14" width="13.51" height="22.94" id="SVGID_00000095316024107359907260000003618183341725244831_">
	<g style="filter:url(#Adobe_OpacityMaskFilter_00000124144561519689732400000008125606672656453033_);">
		<defs>
			
				<filter id="Adobe_OpacityMaskFilter_00000070834259399184701230000005828177793809320358_" filterUnits="userSpaceOnUse" x="71.84" y="65.14" width="13.51" height="22.94">
				<feFlood  style="flood-color:white;flood-opacity:1" result="back"/>
				<feBlend  in="SourceGraphic" in2="back" mode="normal"/>
			</filter>
		</defs>
		
			<mask maskUnits="userSpaceOnUse" x="71.84" y="65.14" width="13.51" height="22.94" id="SVGID_00000095316024107359907260000003618183341725244831_">
			<g style="filter:url(#Adobe_OpacityMaskFilter_00000070834259399184701230000005828177793809320358_);">
			</g>
		</mask>
		
			<linearGradient id="SVGID_00000137105724728750819500000005070041547701507518_" gradientUnits="userSpaceOnUse" x1="78.1774" y1="53.7179" x2="79.8362" y2="134.4454">
			<stop  offset="0" style="stop-color:#FFFFFF"/>
			<stop  offset="1" style="stop-color:#000000"/>
		</linearGradient>
		
			<path style="mask:url(#SVGID_00000095316024107359907260000003618183341725244831_);fill:url(#SVGID_00000137105724728750819500000005070041547701507518_);" d="
			M85.31,73.71c0.34-4.73-2.4-8.57-6.11-8.57c-3.71,0-7,3.84-7.34,8.57c-0.21,2.94,0.77,5.53,2.43,7.08
			c-0.19,0.55-0.33,1.14-0.37,1.76c-0.22,3.06,1.55,5.54,3.95,5.54c2.4,0,4.53-2.48,4.75-5.54c0.06-0.8-0.03-1.55-0.22-2.24
			C84.01,78.73,85.12,76.36,85.31,73.71z"/>
	</g>
</mask>
<linearGradient id="SVGID_00000140709239754941278290000015453871296771991726_" gradientUnits="userSpaceOnUse" x1="78.1774" y1="53.7179" x2="79.8362" y2="134.4454">
	<stop  offset="0" style="stop-color:#671D00"/>
	<stop  offset="1" style="stop-color:#FFE0B9"/>
</linearGradient>
<path style="opacity:0.3;fill:url(#SVGID_00000140709239754941278290000015453871296771991726_);" d="M85.31,73.71
	c0.34-4.73-2.4-8.57-6.11-8.57c-3.71,0-7,3.84-7.34,8.57c-0.21,2.94,0.77,5.53,2.43,7.08c-0.19,0.55-0.33,1.14-0.37,1.76
	c-0.22,3.06,1.55,5.54,3.95,5.54c2.4,0,4.53-2.48,4.75-5.54c0.06-0.8-0.03-1.55-0.22-2.24C84.01,78.73,85.12,76.36,85.31,73.71z"/>
<defs>
	
		<filter id="Adobe_OpacityMaskFilter_00000018960069758816689210000015791051067700532639_" filterUnits="userSpaceOnUse" x="242.64" y="65.14" width="16.02" height="22.94">
		<feFlood  style="flood-color:white;flood-opacity:1" result="back"/>
		<feBlend  in="SourceGraphic" in2="back" mode="normal"/>
	</filter>
</defs>
<mask maskUnits="userSpaceOnUse" x="242.64" y="65.14" width="16.02" height="22.94" id="SVGID_00000003825254108986512290000013211685709240948894_">
	<g style="filter:url(#Adobe_OpacityMaskFilter_00000018960069758816689210000015791051067700532639_);">
		<defs>
			
				<filter id="Adobe_OpacityMaskFilter_00000003084297258561404950000006150140872258776710_" filterUnits="userSpaceOnUse" x="242.64" y="65.14" width="16.02" height="22.94">
				<feFlood  style="flood-color:white;flood-opacity:1" result="back"/>
				<feBlend  in="SourceGraphic" in2="back" mode="normal"/>
			</filter>
		</defs>
		
			<mask maskUnits="userSpaceOnUse" x="242.64" y="65.14" width="16.02" height="22.94" id="SVGID_00000003825254108986512290000013211685709240948894_">
			<g style="filter:url(#Adobe_OpacityMaskFilter_00000003084297258561404950000006150140872258776710_);">
			</g>
		</mask>
		
			<linearGradient id="SVGID_00000118395600267603418290000017717015116566796174_" gradientUnits="userSpaceOnUse" x1="250.4148" y1="62.3551" x2="252.0738" y2="143.0865">
			<stop  offset="0" style="stop-color:#FFFFFF"/>
			<stop  offset="1" style="stop-color:#000000"/>
		</linearGradient>
		
			<path style="mask:url(#SVGID_00000003825254108986512290000013211685709240948894_);fill:url(#SVGID_00000118395600267603418290000017717015116566796174_);" d="
			M258.62,73.71c0.4-4.73-2.84-8.57-7.25-8.57c-4.4,0-8.3,3.84-8.7,8.57c-0.25,2.94,0.91,5.53,2.88,7.08
			c-0.22,0.55-0.39,1.14-0.44,1.76c-0.26,3.06,1.84,5.54,4.69,5.54c2.85,0,5.37-2.48,5.63-5.54c0.07-0.8-0.03-1.55-0.26-2.24
			C257.07,78.73,258.4,76.36,258.62,73.71z"/>
	</g>
</mask>
<linearGradient id="SVGID_00000083060471253160068700000003110141945564486548_" gradientUnits="userSpaceOnUse" x1="250.4148" y1="62.3551" x2="252.0738" y2="143.0865">
	<stop  offset="0" style="stop-color:#671D00"/>
	<stop  offset="1" style="stop-color:#FFE0B9"/>
</linearGradient>
<path style="opacity:0.3;fill:url(#SVGID_00000083060471253160068700000003110141945564486548_);" d="M258.62,73.71
	c0.4-4.73-2.84-8.57-7.25-8.57c-4.4,0-8.3,3.84-8.7,8.57c-0.25,2.94,0.91,5.53,2.88,7.08c-0.22,0.55-0.39,1.14-0.44,1.76
	c-0.26,3.06,1.84,5.54,4.69,5.54c2.85,0,5.37-2.48,5.63-5.54c0.07-0.8-0.03-1.55-0.26-2.24C257.07,78.73,258.4,76.36,258.62,73.71z"
	/>
<defs>
	
		<filter id="Adobe_OpacityMaskFilter_00000073693032950349689240000002433545878974003335_" filterUnits="userSpaceOnUse" x="686.04" y="66.16" width="13.83" height="20.54">
		<feFlood  style="flood-color:white;flood-opacity:1" result="back"/>
		<feBlend  in="SourceGraphic" in2="back" mode="normal"/>
	</filter>
</defs>
<mask maskUnits="userSpaceOnUse" x="686.04" y="66.16" width="13.83" height="20.54" id="SVGID_00000173158961929214991250000016138230787443644852_">
	<g style="filter:url(#Adobe_OpacityMaskFilter_00000073693032950349689240000002433545878974003335_);">
		<defs>
			
				<filter id="Adobe_OpacityMaskFilter_00000126293185727129039880000008039182704918483610_" filterUnits="userSpaceOnUse" x="686.04" y="66.16" width="13.83" height="20.54">
				<feFlood  style="flood-color:white;flood-opacity:1" result="back"/>
				<feBlend  in="SourceGraphic" in2="back" mode="normal"/>
			</filter>
		</defs>
		
			<mask maskUnits="userSpaceOnUse" x="686.04" y="66.16" width="13.83" height="20.54" id="SVGID_00000173158961929214991250000016138230787443644852_">
			<g style="filter:url(#Adobe_OpacityMaskFilter_00000126293185727129039880000008039182704918483610_);">
			</g>
		</mask>
		
			<linearGradient id="SVGID_00000173845449416139976400000015796470445969546643_" gradientUnits="userSpaceOnUse" x1="692.5109" y1="52.3596" x2="694.1695" y2="133.0771">
			<stop  offset="0" style="stop-color:#FFFFFF"/>
			<stop  offset="1" style="stop-color:#000000"/>
		</linearGradient>
		
			<path style="mask:url(#SVGID_00000173158961929214991250000016138230787443644852_);fill:url(#SVGID_00000173845449416139976400000015796470445969546643_);" d="
			M699.87,73.83c0-4.24-3.1-7.67-6.91-7.67c-3.82,0-6.91,3.43-6.91,7.67c0,2.63,1.2,4.96,3.02,6.34c-0.15,0.5-0.25,1.02-0.25,1.57
			c0,2.74,2,4.96,4.47,4.96c2.47,0,4.47-2.22,4.47-4.96c0-0.72-0.14-1.39-0.39-2.01C698.89,78.33,699.87,76.21,699.87,73.83z"/>
	</g>
</mask>
<linearGradient id="SVGID_00000056418817446450172230000017217320689848155555_" gradientUnits="userSpaceOnUse" x1="692.5109" y1="52.3596" x2="694.1695" y2="133.0771">
	<stop  offset="0" style="stop-color:#671D00"/>
	<stop  offset="1" style="stop-color:#FFE0B9"/>
</linearGradient>
<path style="opacity:0.3;fill:url(#SVGID_00000056418817446450172230000017217320689848155555_);" d="M699.87,73.83
	c0-4.24-3.1-7.67-6.91-7.67c-3.82,0-6.91,3.43-6.91,7.67c0,2.63,1.2,4.96,3.02,6.34c-0.15,0.5-0.25,1.02-0.25,1.57
	c0,2.74,2,4.96,4.47,4.96c2.47,0,4.47-2.22,4.47-4.96c0-0.72-0.14-1.39-0.39-2.01C698.89,78.33,699.87,76.21,699.87,73.83z"/>
<g>
	<path class="st41" d="M687.27,62.65c2.32-2.95,6.63-3.03,9.64-0.17c3.01,2.86,3.57,7.57,1.25,10.52c-2.32,2.95-6.63,3.03-9.64,0.17
		C685.52,70.31,684.96,65.6,687.27,62.65z"/>
	<path class="st42" d="M689.55,65.4c2.01-2.56,5.5-2.9,7.8-0.77c2.3,2.14,2.53,5.94,0.52,8.5c-2.01,2.56-5.5,2.9-7.8,0.77
		C687.77,71.77,687.54,67.96,689.55,65.4z"/>
	<path class="st42" d="M691.73,58.8c2.24-0.83,2.06,3.71,4.22,5.88c2.25,2.27,0.06,5.97-2.18,6.8c-2.24,0.83-6.44-1.67-4.59-5.03
		C690.68,63.74,689.5,59.63,691.73,58.8z"/>
	<path class="st43" d="M690.29,65.51c0-2.99,1.12-5.41,2.16-6.79c-0.21-0.05-0.45-0.03-0.72,0.08c-2.24,0.84-1.05,4.94-2.55,7.66
		c-1.37,2.49,0.59,4.51,2.6,5.05C691.13,70.04,690.29,67.8,690.29,65.51z"/>
	<path class="st41" d="M689.67,58.71c1.41-1.8,4.04-1.84,5.87-0.1c1.83,1.74,2.17,4.61,0.76,6.4c-1.41,1.8-4.03,1.84-5.87,0.1
		C688.6,63.37,688.26,60.5,689.67,58.71z"/>
	<path class="st43" d="M691.43,57.72c1.25-0.57,2.46-0.52,2.71,0.13c0.24,0.64-0.57,1.63-1.82,2.21c-1.25,0.57-2.46,0.52-2.71-0.13
		C689.36,59.28,690.18,58.29,691.43,57.72z"/>
</g>
<g>
	<path class="st41" d="M390.46,64.52c2.71-2.52,6.98-1.85,9.54,1.49c2.57,3.34,2.45,8.09-0.25,10.6c-2.7,2.52-6.98,1.85-9.54-1.49
		C387.64,71.79,387.76,67.04,390.46,64.52z"/>
	<path class="st42" d="M392.32,67.63c2.35-2.18,5.85-1.92,7.81,0.58c1.97,2.5,1.66,6.31-0.69,8.49c-2.35,2.18-5.85,1.92-7.81-0.58
		C389.66,73.62,389.97,69.82,392.32,67.63z"/>
	<path class="st42" d="M395.41,61.48c2.33-0.44,1.51,4.02,3.34,6.54c1.9,2.63-0.79,5.9-3.12,6.34c-2.33,0.44-6.12-2.76-3.82-5.75
		C393.67,66.19,393.08,61.93,395.41,61.48z"/>
	<path class="st43" d="M393.04,67.87c0.42-2.95,1.87-5.15,3.1-6.33c-0.2-0.08-0.44-0.1-0.72-0.05c-2.33,0.44-1.74,4.7-3.6,7.13
		c-1.71,2.22-0.06,4.55,1.85,5.43C393.22,72.49,392.71,70.13,393.04,67.87z"/>
	<path class="st41" d="M393.38,61.04c1.65-1.53,4.25-1.13,5.81,0.91c1.56,2.03,1.49,4.92-0.16,6.46c-1.65,1.53-4.25,1.13-5.81-0.91
		C391.67,65.46,391.74,62.58,393.38,61.04z"/>
	<path class="st43" d="M395.26,60.37c1.32-0.35,2.5-0.09,2.66,0.59c0.15,0.68-0.8,1.51-2.11,1.87c-1.32,0.35-2.5,0.09-2.66-0.59
		C393,61.55,393.95,60.72,395.26,60.37z"/>
</g>
<g>
	<path class="st41" d="M253.22,62.62c-3.38-1.51-7.51,0.54-9.22,4.59c-1.71,4.05-0.36,8.56,3.02,10.07
		c3.38,1.51,7.51-0.54,9.22-4.59C257.95,68.65,256.6,64.14,253.22,62.62z"/>
	<path class="st42" d="M252.16,66.22c-2.93-1.31-6.39,0.1-7.72,3.15c-1.33,3.05-0.03,6.59,2.91,7.91c2.93,1.31,6.39-0.1,7.72-3.15
		C256.39,71.07,255.09,67.53,252.16,66.22z"/>
	<path class="st42" d="M247.44,61.36c-2.46,0.35-0.48,4.35-1.66,7.37c-1.23,3.15,2.33,5.39,4.79,5.04c2.46-0.35,5.45-4.67,2.35-6.78
		C250.41,65.28,249.9,61.01,247.44,61.36z"/>
	<path class="st43" d="M251.49,66.68c-1.2-2.69-3.23-4.31-4.77-5.04c0.18-0.14,0.41-0.24,0.72-0.29c2.46-0.35,2.98,3.93,5.49,5.63
		c2.3,1.56,1.25,4.34-0.45,5.82C252.51,71.17,252.4,68.74,251.49,66.68z"/>
	<path class="st41" d="M249.36,60.26c-2.06-0.92-4.57,0.33-5.62,2.79c-1.04,2.47-0.22,5.21,1.84,6.13c2.06,0.92,4.57-0.33,5.61-2.8
		C252.24,63.93,251.42,61.18,249.36,60.26z"/>
	<path class="st43" d="M247.29,60.23c-1.42,0.1-2.55,0.75-2.52,1.45c0.03,0.7,1.2,1.19,2.61,1.09c1.42-0.1,2.55-0.75,2.52-1.45
		C249.88,60.62,248.71,60.14,247.29,60.23z"/>
</g>
<g>
	<path class="st41" d="M81.07,62.62c-3.38-1.51-7.51,0.54-9.22,4.59c-1.71,4.05-0.36,8.56,3.02,10.07c3.38,1.51,7.51-0.54,9.22-4.59
		C85.8,68.65,84.45,64.14,81.07,62.62z"/>
	<path class="st42" d="M80.01,66.22c-2.93-1.31-6.39,0.1-7.72,3.15c-1.33,3.05-0.03,6.59,2.91,7.91c2.93,1.31,6.39-0.1,7.72-3.15
		C84.25,71.07,82.95,67.53,80.01,66.22z"/>
	<path class="st42" d="M75.29,61.36c-2.46,0.35-0.48,4.35-1.66,7.37c-1.23,3.15,2.33,5.39,4.79,5.04c2.46-0.35,5.45-4.67,2.35-6.78
		C78.27,65.28,77.75,61.01,75.29,61.36z"/>
	<path class="st43" d="M79.34,66.68c-1.2-2.69-3.23-4.31-4.77-5.04c0.18-0.14,0.42-0.24,0.72-0.29c2.46-0.35,2.98,3.93,5.48,5.63
		c2.3,1.56,1.25,4.34-0.45,5.82C80.37,71.17,80.26,68.74,79.34,66.68z"/>
	<path class="st41" d="M77.22,60.26c-2.06-0.92-4.57,0.33-5.62,2.79c-1.04,2.47-0.22,5.21,1.84,6.13c2.06,0.92,4.57-0.33,5.61-2.8
		C80.1,63.93,79.28,61.18,77.22,60.26z"/>
	<path class="st43" d="M75.15,60.23c-1.42,0.1-2.55,0.75-2.52,1.45c0.03,0.7,1.2,1.19,2.61,1.09c1.42-0.1,2.55-0.75,2.52-1.45
		C77.74,60.62,76.57,60.14,75.15,60.23z"/>
</g>
<g>
	<path class="st20" d="M472.76,56.64c0,0,2.17,133.03,5.8,149.9c0,0,98.57-2.51,135.09,1.49c0,0-15.62-127.47-14.82-152.69
		c0,0-26.05,6.51-56.19,5.65C519.12,60.32,493.63,51.28,472.76,56.64z"/>
	<path class="st21" d="M546.67,134.22c-27.28,5.21-53.15,1.53-72.36-8.57c1,35.25,2.44,72.49,4.25,80.89c0,0,98.57-2.51,135.09,1.49
		c0,0-6.7-54.66-11.1-99.48C588.02,120.71,568.66,130.02,546.67,134.22z"/>
	<path class="st21" d="M475.38,58.81c20.86-5.36,46.36,3.68,69.87,4.34c24.44,0.69,46.19-3.46,53.54-5.05
		c-0.01-1.02,0-1.95,0.03-2.77c0,0-26.05,6.51-56.19,5.65c-23.51-0.67-49.01-9.7-69.87-4.34c0,0,2.17,133.03,5.8,149.9
		c0,0,0.79-0.02,2.24-0.05C477.41,182.63,475.38,58.81,475.38,58.81z"/>
	<path class="st22" d="M479.32,150.37c0,0,22.51,30.51,29.68,52.82l-27.62,1.67L479.32,150.37z"/>
	<path class="st20" d="M563.78,205.02c0,0,25.12-19.9,45.97-25.71l3.52,28.47L563.78,205.02z"/>
</g>
<defs>
	
		<filter id="Adobe_OpacityMaskFilter_00000090973058408890945520000006304949559927784628_" filterUnits="userSpaceOnUse" x="534.83" y="66.71" width="13.83" height="20.54">
		<feFlood  style="flood-color:white;flood-opacity:1" result="back"/>
		<feBlend  in="SourceGraphic" in2="back" mode="normal"/>
	</filter>
</defs>
<mask maskUnits="userSpaceOnUse" x="534.83" y="66.71" width="13.83" height="20.54" id="SVGID_00000059992752978004624420000015304326683977822368_">
	<g style="filter:url(#Adobe_OpacityMaskFilter_00000090973058408890945520000006304949559927784628_);">
		<defs>
			
				<filter id="Adobe_OpacityMaskFilter_00000056391054883635958190000002867408624054769590_" filterUnits="userSpaceOnUse" x="534.83" y="66.71" width="13.83" height="20.54">
				<feFlood  style="flood-color:white;flood-opacity:1" result="back"/>
				<feBlend  in="SourceGraphic" in2="back" mode="normal"/>
			</filter>
		</defs>
		
			<mask maskUnits="userSpaceOnUse" x="534.83" y="66.71" width="13.83" height="20.54" id="SVGID_00000059992752978004624420000015304326683977822368_">
			<g style="filter:url(#Adobe_OpacityMaskFilter_00000056391054883635958190000002867408624054769590_);">
			</g>
		</mask>
		
			<linearGradient id="SVGID_00000077325931445567762660000003990244127512095662_" gradientUnits="userSpaceOnUse" x1="541.3583" y1="55.778" x2="543.017" y2="136.4954">
			<stop  offset="0" style="stop-color:#FFFFFF"/>
			<stop  offset="1" style="stop-color:#000000"/>
		</linearGradient>
		
			<path style="mask:url(#SVGID_00000059992752978004624420000015304326683977822368_);fill:url(#SVGID_00000077325931445567762660000003990244127512095662_);" d="
			M548.66,74.38c0-4.24-3.1-7.67-6.91-7.67c-3.82,0-6.92,3.43-6.92,7.67c0,2.63,1.2,4.96,3.02,6.34c-0.15,0.5-0.25,1.02-0.25,1.57
			c0,2.74,2,4.96,4.47,4.96c2.47,0,4.47-2.22,4.47-4.96c0-0.71-0.14-1.39-0.39-2.01C547.68,78.88,548.66,76.76,548.66,74.38z"/>
	</g>
</mask>
<linearGradient id="SVGID_00000177448277744462822460000011558619373362364833_" gradientUnits="userSpaceOnUse" x1="541.3583" y1="55.778" x2="543.017" y2="136.4954">
	<stop  offset="0" style="stop-color:#671D00"/>
	<stop  offset="1" style="stop-color:#FFE0B9"/>
</linearGradient>
<path style="opacity:0.3;fill:url(#SVGID_00000177448277744462822460000011558619373362364833_);" d="M548.66,74.38
	c0-4.24-3.1-7.67-6.91-7.67c-3.82,0-6.92,3.43-6.92,7.67c0,2.63,1.2,4.96,3.02,6.34c-0.15,0.5-0.25,1.02-0.25,1.57
	c0,2.74,2,4.96,4.47,4.96c2.47,0,4.47-2.22,4.47-4.96c0-0.71-0.14-1.39-0.39-2.01C547.68,78.88,548.66,76.76,548.66,74.38z"/>
<g>
	<path class="st41" d="M540.28,74.2c3.35,1.11,7.53-1.04,9.33-4.82c1.8-3.78,0.54-7.74-2.82-8.86c-3.35-1.11-7.53,1.04-9.33,4.82
		C535.67,69.12,536.93,73.08,540.28,74.2z"/>
	<path class="st42" d="M549.28,69.39c0-2.92-2.35-5.29-5.24-5.29c-2.9,0-6.04,4.29-6.04,7.21c0,2.92,3.14,3.36,6.04,3.36
		C546.93,74.68,549.28,72.31,549.28,69.39z"/>
	<path class="st43" d="M546.04,74.91c2.47-0.5,0.57-3.96,1.81-6.76c1.29-2.93-2.23-4.69-4.7-4.19c-2.47,0.5-5.55,4.62-2.49,6.29
		C543.14,71.59,543.57,75.41,546.04,74.91z"/>
	<path class="st42" d="M543.94,71.22c-1.01,0-7.37-4.76-3.77-0.76c2.02,2.25,3.39,4.95,5.98,4.45c2.59-0.5,1.39-3.66,1.9-6.76
		C549.09,61.82,544.95,71.22,543.94,71.22z"/>
	<path class="st41" d="M544.1,76.04c2.04,0.68,4.58-0.64,5.68-2.93c1.1-2.3,0.33-4.71-1.71-5.39c-2.04-0.68-4.58,0.64-5.68,2.94
		C541.28,72.95,542.05,75.37,544.1,76.04z"/>
	<path class="st43" d="M546.49,70.4c1.48,0.01,2.83-0.46,3.01-1.03c0.19-0.58-0.86-1.06-2.34-1.06c-1.48-0.01-2.83,0.46-3.01,1.03
		C543.97,69.92,545.01,70.4,546.49,70.4z"/>
</g>
<path class="st48" d="M262.39,153.59c19.81-39.78-4.61-53.22-4.61-53.22l-7.97,16.24c0,0,12.06,11.13,7.91,25.34
	c-0.39,1.33-0.8,2.58-1.23,3.8c-0.24,0.67-0.48,1.32-0.73,1.96c-0.14,0.35-0.27,0.71-0.41,1.05c-0.13,0.33-0.27,0.64-0.41,0.97
	c-0.21,0.48-0.41,0.97-0.63,1.43c0,0,0,0.01,0,0.01c-11.74,25.6-31.82,18.79-31.82,18.79l-12.17,19.58
	c16.52,8.05,28.2,9.53,50.96-33.8c0.35-0.67,0.69-1.33,1.02-1.99C262.34,153.69,262.36,153.64,262.39,153.59L262.39,153.59z"/>
<g class="st49">
	<g>
		<path class="st50" d="M410.86,169c-4.8,8.47-11.02,14.95-19.81,18.53c-13.81,5.63-25.75-9.18-30.9-20.29
			c-7.13-15.38-5.11-35.73,4.28-50.1c26.44-40.46,73.45,14.23,47.45,38.07c-13.64-19.4,6.87-47.11-28.41-34.84
			c-12.1,4.21-17.8,22.49-13.81,32.85c6.47,16.8,23.11,7.94,31.67-5.26c1.53,4.01,3.74,7.71,6.62,10.75
			c1.24,1.31,5.13,1.35,6.62,0.4c19.39-12.38,11.19-40.84-4.37-51.58c-16.45-11.37-39.42-8.42-52.34,8.73
			c-14.42,19.14-11,53.87,7.85,67.21c18.5,13.09,40.26,6.76,52.03-14.03C417.94,169.03,411.88,167.2,410.86,169z M377.77,155.57
			c-4.48-5.61-2.55-14.72-0.45-21.12c1.23-3.77,3.31-7.07,6.13-9.66C411.96,98.58,395.42,177.66,377.77,155.57z"/>
	</g>
</g>
<g class="st49">
	<path class="st50" d="M675.42,154.95c0.19,0.56,0.7,0.93,1.2,0.98c3.37,0.34,6.78,0.76,10.08,0.45c1.5-0.14,2.45-2.34,1.65-3.19
		c-0.15-0.45-0.6-0.77-1.46-0.69c-2.67,0.24-5.4-0.01-8.13-0.29c0.16-1.88,1.36-3.59,2.25-5c1.47-2.32,3.02-4.54,4.41-6.93
		c1.7-2.93,3.1-6.92,2.72-10.82c-0.02-0.94-0.13-1.88-0.36-2.81c-1-3.95-4.94-3.39-7.21-2.32c-3.66,1.72-5.79,5.47-5.31,9.86
		c0.02,1.28,0.27,2.63,0.78,4.02c0.69,1.89,4.25,0.95,3.59-0.86c-0.02-0.06-0.04-0.12-0.06-0.19c0.09-0.25,0.11-0.52,0-0.83
		c-0.34-0.94-0.58-1.84-0.69-2.72c0-0.87,0.14-1.74,0.47-2.65c0.42-1.15,3.46-4.78,4.68-3.04c0.35,0.5,0.55,1.13,0.64,1.82
		c-0.03,2.32-0.96,5.01-1.5,6.39c-1.5,3.78-4.14,6.83-6.16,10.19c-1.12,1.87-2.26,4.1-1.91,6.51
		C675.08,153.51,675.17,154.22,675.42,154.95z"/>
	<path class="st50" d="M698.52,138.8c-0.22-0.7-3.19-0.42-3.48,0.6c-0.47,1.62-0.8,3.3-1.03,5c-1.17-0.24-2.35-0.47-3.52-0.7
		c1.41-6.02,3.3-12.26,5.52-17.85c0.2-0.5-0.1-0.82-0.6-1c-0.48-0.57-3.15-0.31-3.47,0.68c-1.67,5.1-3.21,10.22-4.5,15.45
		c-0.4,1.45-0.74,2.8-1,3.95c-0.1,0.45,0.56,1.21,0.85,1.27c2.15,0.43,4.29,0.84,6.42,1.3c-0.05,0.86-0.07,1.73-0.08,2.59
		c0,0.22,0,0.45,0,0.67c0,0.2,0,0.4,0.01,0.6c0.03,1.53,0.12,3.09,0.27,4.72c0.08,0.9,3.59,0.35,3.48-0.87
		c-0.03-0.31-0.04-0.63-0.06-0.95c0-0.01,0-0.02,0-0.04c-0.01-0.14-0.02-0.27-0.03-0.41c-0.1-2.2,0-4.5,0.24-6.78
		c0.7-0.52,1.16-1.15,0.71-1.48c-0.02-0.14-0.17-0.26-0.48-0.34c0.28-2.07,0.65-4.09,1.05-5.96
		C698.86,139.05,698.74,138.9,698.52,138.8z"/>
	<path class="st50" d="M701.02,163.85c1.88-7.13,3.76-14.29,5.66-21.5v0c2.01-7.62,4.03-15.28,6.06-22.99
		c0.5-1.9-2.02-1.97-2.47-0.3c-1.89,7.2-3.77,14.35-5.63,21.47c-2.03,7.74-4.06,15.45-6.06,23.1
		C698.09,165.47,700.59,165.47,701.02,163.85z"/>
	<path class="st50" d="M732.63,128.39c0.3-0.61-0.72-0.95-1.01-0.99c-5.05-0.67-10.14-1.32-15.26-1.66
		c-1.27-0.08-2.47,0.98-1.94,1.6c-0.28,0.5-0.03,1.03,1.27,1.11c4.22,0.27,8.42,0.78,12.59,1.32c-4.3,8.76-8.58,17.48-12.85,26.15
		c-0.1,0.2-0.04,0.36,0.12,0.49c-0.03,0.06-0.06,0.12-0.09,0.18c-0.5,1.02,3.07,1.16,3.64,0c4.5-9.13,9.02-18.3,13.55-27.52
		c0.1-0.22,0.04-0.4-0.09-0.54C732.59,128.48,732.61,128.43,732.63,128.39z"/>
	<path class="st50" d="M710.85,176.64c-2.37-0.02-4.19,2.18-4.06,4.91c0.13,2.72,2.15,4.93,4.5,4.93c2.35,0.01,4.15-2.17,4.03-4.88
		C715.21,178.89,713.21,176.67,710.85,176.64z"/>
	<path class="st50" d="M736.96,118.23c-8.09-13.83-23.14-23.17-39.88-22.59c-55,1.9-53.67,83.67,6.02,89.48l-0.24-6.74l0-5.07
		l-2.73,0.16l0.18,3.47c-9.56-0.86-18.49-5.21-25.23-11.89l1.59-1.9l-2.08-2.01l-1.49,1.79c-5.2-5.94-8.77-13.4-9.8-21.72
		c-0.09-0.76-0.15-1.51-0.2-2.26l5.5,0.18l-0.39-3.07l-5.21-0.18c0.1-9.28,3.52-17.8,9.26-24.31l1.63,1.84l1.66-2.23l-1.4-1.59
		c1.19-1.16,2.46-2.25,3.8-3.25c0.01-0.01,0.02-0.02,0.04-0.03c0.68-0.51,1.39-0.99,2.11-1.46c5.45-3.48,11.89-5.6,18.91-5.86
		l0.35,6.98l2.6,0.14l-0.35-7.13c7.69,0.21,14.91,2.65,21.03,6.67l-1.28,1.56l1.93,2.19l1.71-2.07c4.18,3.19,7.76,7.15,10.49,11.66
		l-4.93,0.39l10.21,11.36l0.45-16.03L736.96,118.23z"/>
</g>
<g class="st49">
	<polygon class="st50" points="558.06,102.03 547.56,98.98 547.41,99.64 557.91,102.69 	"/>
	<path class="st50" d="M532.41,97.43l-14.05,71.34l38.79,9.33l16-68.79L532.41,97.43z M554.99,175.44l-34.66-8.57l13.56-66.35
		l37.63,10.67L554.99,175.44z"/>
	<path class="st50" d="M533.5,176.04l-0.9,5.36l6.22,1.77l1.26-5.4L533.5,176.04z M538.37,182.53l-5.15-1.47l0.74-4.41l5.45,1.43
		L538.37,182.53z"/>
	<polygon class="st50" points="537.87,178.78 535.02,178.04 534.62,180.37 537.33,181.14 	"/>
	<path class="st50" d="M511.54,180.6l47.56,13.27l21.27-89.94l-52.08-14.19L511.54,180.6z M557.63,190.85l-43.61-12.66l15.21-86.47
		l48.75,13.81L557.63,190.85z"/>
	<polygon class="st50" points="537.87,178.78 535.02,178.04 534.62,180.37 537.33,181.14 	"/>
</g>
<path class="st48" d="M124.65,137.93l0.19,0.75l-6.91-36.02l-3.86,1.48L45.5,129.71l23.57,56.19l60.18-24.16L124.65,137.93z
	 M116.21,104.98L95.83,147.8l-44.89-17.38l40.3-16.69L116.21,104.98z M48.36,131.49l0.58-0.24l48.05,21.45l19.69-46.25l4.97,19.61
	l5.08,34.04l-56.52,23.91L48.36,131.49z"/>
</svg>
